<?xml version="1.0" encoding="UTF-8"?>
<svg xmlns="http://www.w3.org/2000/svg" xmlns:xlink="http://www.w3.org/1999/xlink" width="1012.5pt" height="487.499991pt" viewBox="0 0 1012.5 487.499991" version="1.2">
<defs>
<clipPath id="clip1">
  <path d="M 142 135 L 876 135 L 876 319 L 142 319 Z M 142 135 "/>
</clipPath>
<clipPath id="clip2">
  <path d="M 134.078125 187.695312 L 867.796875 128.429688 L 878.78125 264.414062 L 145.0625 323.679688 Z M 134.078125 187.695312 "/>
</clipPath>
<clipPath id="clip3">
  <path d="M 134.078125 187.695312 L 867.796875 128.429688 L 878.78125 264.414062 L 145.0625 323.679688 Z M 134.078125 187.695312 "/>
</clipPath>
</defs>
<g id="surface1">
<g clip-path="url(#clip1)" clip-rule="nonzero">
<g clip-path="url(#clip2)" clip-rule="nonzero">
<g clip-path="url(#clip3)" clip-rule="nonzero">
<path style=" stroke:none;fill-rule:evenodd;fill:rgb(99.21875%,72.158813%,71.369934%);fill-opacity:1;" d="M 839.84375 142.699219 C 835.546875 141.570312 829.9375 141.46875 824.242188 141.445312 C 824.597656 141.125 824.710938 140.664062 824.621094 140.101562 C 821.441406 140.253906 820.203125 141.449219 816.75 141.457031 C 817.757812 140.6875 816.855469 140.203125 815.175781 140.609375 C 816.085938 139.691406 819.207031 139.957031 819.199219 140.90625 C 819.816406 140.765625 819.644531 140.21875 819.140625 140.257812 C 827.253906 140.042969 835.472656 138.027344 842.503906 138.851562 C 838.210938 136.371094 825.03125 137.492188 818.796875 136.355469 C 819.121094 135.566406 821.835938 135.769531 821.335938 136.785156 C 821.964844 136.402344 823.15625 136.308594 823.234375 135.632812 C 828.699219 136.265625 834.851562 136.171875 840.203125 135.453125 C 846.523438 137.296875 854.867188 137.554688 858.710938 141.367188 C 859.144531 143.996094 858.550781 145.460938 859.257812 147.550781 C 857.898438 150.433594 856.367188 153.230469 853.441406 155.273438 C 855.816406 157.777344 857.246094 159.691406 857.574219 162.453125 C 856.96875 163.039062 854.019531 163.949219 856.230469 164.214844 C 855.238281 164.710938 854.210938 165.191406 853.371094 165.78125 C 853.695312 166.609375 856.203125 166.636719 855.03125 167.597656 C 853.335938 168.011719 853.085938 167.28125 851.53125 167.578125 C 852.066406 169.457031 855.773438 169.960938 856.953125 172.347656 C 858.40625 175.285156 856.441406 179.105469 856.878906 182.847656 C 852.027344 183.273438 854.136719 187.921875 847.332031 187.949219 C 852.609375 189.625 860.234375 191.164062 866.578125 190.84375 C 867.824219 192.070312 869.738281 195.433594 867.09375 196.699219 C 867.722656 197.246094 868.484375 197.6875 869.222656 198.15625 C 868.25 199.046875 864.160156 198.605469 865.890625 200.085938 C 861.003906 201.296875 854.5 200.644531 851.222656 203.675781 C 851.347656 204.503906 853.121094 204.035156 853.789062 204.433594 C 854.015625 205.25 853.027344 206.414062 853.523438 207.082031 C 856.363281 207.53125 855.027344 208.199219 857.605469 208.03125 C 857.070312 208.984375 856.179688 209.746094 854.277344 209.964844 C 855.863281 210.679688 858.644531 210.449219 859.433594 211.804688 C 853.90625 213.816406 851.351562 212.953125 845.113281 213.726562 C 854.222656 214.652344 862.433594 216.28125 870.007812 218.417969 C 870.21875 219.832031 870.429688 221.25 869.246094 221.109375 C 870.265625 222.054688 870.941406 221.238281 871.695312 220.566406 C 872.464844 223.328125 872.882812 225.019531 875.710938 226.445312 C 874.917969 228.839844 871.390625 228.207031 868.449219 229.050781 C 869.019531 230.578125 869.804688 231.925781 872.203125 232 C 870.890625 235.09375 862.417969 235.363281 859.632812 236.714844 C 860.925781 238.566406 863.902344 236.703125 866.574219 236.101562 C 866 237.480469 867.742188 237.03125 867.738281 237.964844 C 858.9375 239.007812 858.363281 241.738281 849.066406 241.578125 C 849.507812 250.078125 843.359375 255.042969 840.351562 261.695312 C 835.976562 261.253906 834.195312 262.839844 832.09375 264.394531 C 831.945312 265.320312 834.769531 263.894531 834.628906 264.820312 C 830.847656 266.273438 825.382812 266.535156 819.871094 267.4375 C 814.722656 268.28125 810.351562 268.648438 806.898438 267.601562 C 781.621094 272.898438 761.402344 271.964844 734.652344 275.613281 C 734.128906 274.605469 736.25 275.027344 736.023438 274.183594 C 727.761719 274.8125 713.488281 278.421875 705.3125 277.214844 C 703.742188 277.652344 704.527344 276.21875 703.710938 276.042969 C 697.457031 276.746094 691.980469 279.296875 687.847656 277.441406 C 678.886719 277.667969 669.210938 281.136719 662.558594 279.675781 C 636.523438 282.230469 615.613281 285.105469 593.527344 284.457031 C 581.007812 284.859375 570.902344 286.546875 558.265625 286.910156 C 559.90625 285.210938 564.054688 284.851562 567.515625 284.128906 C 562.886719 283.960938 555.40625 284.457031 549.144531 285.421875 C 528.207031 288.640625 506.222656 289.917969 484.664062 290.78125 C 483.613281 290.113281 484.753906 290.410156 485.074219 289.761719 C 480.761719 289.058594 476.449219 290.871094 472.734375 291.507812 C 471.75 290.96875 472.605469 290.695312 472.589844 289.875 C 468.316406 289.800781 469.675781 291.101562 467.25 291.65625 C 464.96875 292.152344 467.863281 290.757812 466.175781 290.765625 C 465.105469 290.710938 465.269531 291.316406 465.269531 291.832031 C 459.546875 291.84375 454.976562 291.921875 448.386719 292.996094 C 446.355469 293.328125 448.699219 292.148438 447.28125 291.78125 C 438.925781 292.339844 427.246094 295.191406 418.085938 295.011719 C 413.738281 294.933594 411.050781 295.632812 406.183594 296.070312 C 402.023438 296.4375 397.8125 295.054688 393.09375 294.925781 C 389.21875 294.824219 383.605469 296.625 377.726562 296.28125 C 377.792969 295.800781 379.191406 296.039062 379.148438 295.5 C 362.320312 297.449219 341.617188 299.203125 325.773438 302.175781 C 306.398438 302.488281 284.351562 307.445312 266.894531 308.679688 C 267.273438 308.15625 268.078125 307.867188 269.316406 307.8125 C 252.152344 307.882812 225.9375 309.773438 204.253906 312.242188 C 202.210938 312.59375 202.277344 314.070312 199.414062 313.976562 C 198.25 315.953125 194.269531 316.40625 191.710938 317.285156 C 191.261719 317.4375 189.847656 318.417969 189.3125 318.476562 C 181.417969 319.453125 183.292969 313.246094 178.621094 310.566406 C 176.359375 311.710938 173.964844 312.28125 171.679688 311.179688 C 171.679688 309.109375 175.320312 309.003906 176.351562 307.492188 C 175.679688 307.085938 173.480469 306.671875 173.382812 307.753906 C 172.203125 307.191406 172.140625 306.148438 173.183594 305.472656 C 171.410156 305.453125 172.070312 306.734375 170.296875 306.710938 C 170.023438 306.046875 170.558594 305.820312 170.679688 305.363281 C 169.078125 305.3125 169.199219 306.109375 168.195312 305.585938 C 167.898438 303.5625 168.007812 301.761719 169.78125 300.855469 C 159.636719 299.585938 151.125 294.953125 142.457031 291.464844 C 142.515625 289.429688 144.992188 288.695312 145.035156 286.648438 C 151.015625 284.960938 154.875 284.046875 162.210938 283.164062 C 163.339844 282.425781 161.144531 281.421875 162.476562 280.515625 C 164.589844 280.65625 167.496094 280.324219 168.8125 278.644531 C 166.953125 278.328125 166.085938 278.769531 163.800781 278.433594 C 164.066406 277.648438 165.375 277.414062 165.636719 276.625 C 162.335938 275.019531 167.117188 271.707031 165.035156 269.792969 C 165.816406 268.972656 167.875 270.078125 169.527344 269.726562 C 166.835938 268.9375 172.140625 268.933594 172.882812 268.117188 C 172.617188 267.460938 168.796875 269.1875 169.851562 267.730469 C 164.929688 268.644531 166.332031 267.800781 162.417969 268.390625 C 162.617188 263.390625 170.09375 260.855469 177.976562 257.832031 C 176.761719 256.9375 174.734375 255.203125 175.617188 253.777344 C 174.890625 253.210938 172.882812 254.5625 171.707031 254.773438 C 171.628906 253.800781 172.898438 253.554688 173.019531 252.695312 C 171.78125 252.003906 172.136719 253.261719 170.570312 253.234375 C 171.875 251.199219 174.617188 251.601562 176.816406 250.390625 C 174.460938 249.339844 172.203125 250.710938 169.378906 251.050781 C 169.550781 250.515625 170.910156 250.628906 170.261719 249.660156 C 168.84375 249.726562 169.386719 250.847656 167.34375 250.570312 C 167.011719 249.574219 168.800781 249.699219 168.164062 248.535156 C 165.640625 249.121094 162.542969 249.683594 160.257812 249.554688 C 160.152344 248.363281 161.886719 248.160156 162.566406 247.386719 C 160.878906 246.992188 159.792969 247.949219 157.640625 248.144531 C 157.320312 246.730469 157.1875 245.226562 160.824219 244.589844 C 160.597656 243.847656 160.796875 243.332031 161.175781 242.914062 C 159.019531 242.167969 158.152344 242.800781 153.679688 242.917969 C 152.773438 241.523438 155.53125 240.203125 154.851562 239.210938 C 153.292969 236.945312 150.5625 237.617188 146.730469 237.957031 C 148.214844 236.515625 147.402344 235.730469 148.921875 234.484375 C 146.363281 233.710938 148.097656 232.359375 148.050781 230.300781 C 148.9375 230.179688 149.132812 230.605469 150.0625 230.449219 C 150.910156 226.875 159.703125 227.566406 160.484375 223.960938 C 158.136719 223.496094 159.304688 220.253906 157.105469 219.664062 C 159.527344 215.179688 156.417969 207.71875 165.460938 206.792969 C 164.820312 205.433594 163.148438 204.90625 160.332031 205.277344 C 160.664062 203.746094 159.136719 203.667969 157.21875 203.90625 C 157.875 202.1875 158.167969 202.046875 155.996094 201.398438 C 158.015625 198.347656 157.199219 195.507812 159.101562 191.285156 C 179.691406 190.761719 208.125 188.40625 226.265625 187.976562 C 226.746094 187.929688 226.613281 187.546875 226.703125 187.285156 C 230.78125 188.765625 236.773438 187.226562 240.554688 185.734375 C 240.320312 186.019531 240.085938 186.308594 240.148438 186.757812 C 242.332031 186.792969 242.890625 185.960938 245.074219 185.996094 C 249.398438 186.339844 265.042969 183.019531 275.199219 182.027344 C 286.347656 180.9375 297.84375 178.476562 303.203125 176.605469 C 305.207031 179.246094 310.792969 177.710938 316.734375 177.046875 C 318.230469 176.792969 317.679688 178.160156 318.832031 178.175781 C 321.753906 176.476562 330.773438 177.996094 334.113281 175.84375 C 334.339844 174.96875 333.816406 174.6875 332.546875 174.992188 C 335.96875 173.558594 340.480469 174.46875 344.382812 173.292969 C 344.03125 172.992188 343.214844 173.058594 343.308594 172.402344 C 350.121094 172.21875 357.414062 172.707031 361.9375 174.039062 C 364.296875 173.171875 365.871094 174.0625 367.949219 174.164062 C 373.90625 174.457031 382.691406 172.238281 389.703125 171.589844 C 411.316406 169.570312 432.714844 169.640625 452.730469 166.683594 C 453.085938 166.984375 453.902344 166.917969 453.804688 167.574219 C 469.496094 166.050781 481.917969 163.867188 497.347656 162.75 C 497.425781 161.878906 496.242188 162 495.277344 161.945312 C 499.195312 161.277344 503.007812 162.191406 506.328125 162.609375 C 509.578125 160.050781 512.453125 162.425781 517.261719 161.976562 C 517.601562 162.671875 516.359375 162.519531 516.355469 163.042969 C 532.585938 162.859375 546.605469 156.625 563.367188 157.90625 C 563.957031 157.292969 564.921875 156.882812 566.257812 156.671875 C 565.960938 158.789062 561.316406 158.566406 559.019531 159.601562 C 566.628906 159.039062 575.71875 157.230469 584.886719 158.304688 C 587.773438 155 596.910156 156.125 604.046875 154.648438 C 604.230469 155.164062 603.628906 155.25 603.636719 155.667969 C 605.972656 155.449219 607.449219 155.914062 609.644531 155.792969 C 609.585938 154.683594 607.722656 154.992188 606.089844 155.125 C 609.917969 153.1875 615.695312 155.519531 617.316406 152.160156 C 620.035156 152.324219 621.839844 152.179688 623.210938 150.984375 C 623.398438 151.5 622.792969 151.585938 622.800781 152.011719 C 636.679688 152.707031 652.292969 151.222656 670.070312 149.808594 C 669.738281 148.566406 666.605469 149.535156 665.492188 148.902344 C 682.210938 145.914062 701.601562 149.195312 718.539062 144.21875 C 715.996094 143.402344 710.441406 144.050781 708.507812 143.796875 C 707.464844 143.695312 705.289062 144.484375 705.015625 143.773438 C 710.6875 143.445312 712.558594 142.320312 717.355469 142.027344 C 718.089844 141.597656 718.292969 140.878906 719.746094 140.835938 C 718.726562 141.609375 720.074219 141.746094 719.921875 142.789062 C 722.089844 142.921875 722.636719 142.183594 723.828125 141.789062 C 726.667969 143 729.136719 142.226562 732.261719 141.042969 C 749.734375 142.816406 771.5 138.25 790.933594 137.828125 C 786.394531 139.816406 779.320312 138.757812 775.238281 141.183594 C 776.164062 141.960938 780.125 140.34375 779.351562 142.464844 C 781.488281 142.476562 781.277344 141.222656 783.230469 141.140625 C 783.902344 141.511719 783.972656 142.285156 783.375 142.769531 C 787.34375 141.652344 794.828125 141.195312 799.847656 142.628906 C 798.363281 142.761719 796.878906 142.890625 795.382812 143.023438 C 805.757812 142.972656 821.835938 143.570312 833.792969 142.257812 C 835.007812 143.835938 835.898438 142.136719 839.84375 142.699219 Z M 482.652344 166.015625 C 485.09375 165.640625 487.722656 165.816406 485.738281 167.050781 C 487.765625 167.003906 488.214844 166.113281 489.617188 165.726562 C 487.515625 165.890625 488.375 165.089844 489.003906 164.46875 C 487.1875 165.816406 482.773438 163.84375 482.652344 166.015625 Z M 723.574219 144.429688 C 722.949219 144.410156 722.515625 144.007812 722.609375 144.835938 C 725.144531 144.574219 727.542969 144.082031 729.058594 144.265625 C 728.792969 142.894531 724.664062 143.46875 723.574219 144.429688 Z M 587.363281 163.65625 C 586.988281 164.886719 590.195312 164.109375 589.847656 163.441406 C 588.609375 163.515625 588.257812 162.96875 587.363281 163.65625 Z M 590.894531 164.003906 C 592.542969 163.648438 595.535156 164.015625 596.320312 163.199219 C 593.660156 163.253906 592.480469 162.445312 590.894531 164.003906 Z M 518.34375 185.492188 C 519.839844 186.355469 522.542969 184.910156 522.894531 186.078125 C 524.371094 185.96875 525.328125 184.898438 526.339844 185.449219 C 526.296875 185.015625 526.261719 184.582031 526.222656 184.144531 C 523.789062 184.699219 520.386719 184.726562 518.34375 185.492188 Z M 751.925781 182.59375 C 753.386719 182.140625 755.511719 182.035156 755.777344 180.945312 C 753.835938 181.136719 751.402344 181.074219 751.925781 182.59375 Z M 763.035156 183.910156 C 769.847656 182.710938 759.988281 183.207031 759.070312 184.261719 C 760.710938 184.054688 762.015625 184.085938 763.035156 183.910156 Z M 314.925781 241.484375 C 315.339844 241.714844 317.988281 241.558594 317.839844 240.574219 C 316.527344 240.695312 314.90625 240.652344 314.925781 241.484375 Z M 464.339844 247.324219 C 464.871094 246.0625 461.285156 246.289062 460.808594 246.980469 C 462.726562 246.503906 462.164062 248 464.339844 247.324219 Z M 472.269531 246.617188 C 476.726562 246.828125 480.359375 245.953125 485.683594 245.765625 C 482.933594 245.523438 474.914062 245.152344 472.269531 246.617188 Z M 498.082031 244.675781 C 497.300781 244.714844 496.367188 244.875 496.539062 244.152344 C 493.589844 245.085938 488.96875 244.71875 486.621094 245.027344 C 492.164062 245.664062 494.773438 245.695312 498.082031 244.675781 Z M 446.136719 250.570312 C 442.804688 251.367188 437.9375 250.386719 436.746094 251.726562 C 442.632812 252.125 455.519531 251.4375 462.03125 249.492188 C 456.761719 249.582031 453.488281 249.070312 448.589844 250.023438 C 452.539062 250.894531 445.109375 249.890625 445.09375 250.003906 C 445.652344 250.027344 445.890625 250.300781 446.136719 250.570312 Z M 501.667969 245.667969 C 502.828125 245.570312 503.976562 245.464844 505.132812 245.363281 C 505.226562 244.035156 501.726562 245.121094 501.667969 245.667969 Z M 463.519531 249.359375 C 463.21875 249.40625 462.941406 249.464844 463.050781 249.726562 C 465.242188 249.710938 471.964844 248.738281 466.492188 249.097656 C 465.402344 248.476562 464.914062 249.53125 463.984375 248.992188 C 463.9375 248.796875 463.875 248.613281 463.457031 248.707031 C 463.480469 248.929688 463.5 249.144531 463.519531 249.359375 Z M 435.433594 253.808594 C 434.984375 254.503906 433.652344 254.71875 433.070312 255.328125 C 443.90625 254.960938 462.300781 253.03125 474.710938 251.652344 C 463.558594 250.789062 448.554688 253.871094 435.433594 253.808594 Z M 792.792969 238.015625 C 798.054688 239.667969 805.515625 239.832031 811.859375 238.960938 C 805.332031 239.199219 797.925781 236.582031 792.792969 238.015625 Z M 771.261719 243.199219 C 772.9375 244.046875 777.132812 243.5 778.699219 242.542969 C 778.625 243.300781 778.921875 243.753906 779.804688 243.757812 C 780.601562 243.015625 779.378906 243.152344 780.183594 242.410156 C 777.335938 241.351562 774.476562 242.246094 771.261719 243.199219 Z M 762.367188 244.308594 C 764.34375 244.027344 765.167969 244.648438 767.351562 244.199219 C 767.050781 242.550781 762.34375 243.632812 762.367188 244.308594 Z M 805.757812 243.433594 C 807.398438 243.578125 808.863281 243.402344 811.734375 243.234375 C 811.5625 241.738281 807.394531 243.023438 805.757812 243.433594 Z M 365.039062 294.125 C 363.859375 294.785156 360.175781 293.929688 358.621094 295.023438 C 359.804688 295.914062 364.40625 295.359375 365.039062 294.125 Z M 581 278.355469 C 579.199219 278.757812 578.171875 277.796875 577.03125 278.707031 C 578.996094 280.03125 583.089844 279.238281 586.535156 278.851562 C 592.089844 278.226562 597.28125 276.976562 602.867188 277.085938 C 597.445312 275.726562 585.09375 277.722656 581 278.355469 Z M 610.769531 276.054688 C 612.984375 276.273438 618.078125 275.496094 621.128906 274.484375 C 617.519531 275.167969 611.125 274.0625 610.769531 276.054688 Z M 640.960938 272.730469 C 640.972656 274.1875 636.101562 273.019531 636.121094 274.472656 C 638.644531 274.789062 640.378906 274.199219 642.539062 273.582031 C 642.851562 274.417969 643.023438 274.644531 644.199219 275.398438 C 654.285156 271.703125 664.664062 275.457031 674.355469 271.757812 C 663.308594 271.222656 652.019531 273.726562 640.960938 272.730469 Z M 549.84375 282.085938 C 547.320312 282.292969 544.003906 281.164062 542.96875 283.351562 C 551.9375 283.152344 560.785156 282.1875 569.621094 279.691406 C 563.175781 280.179688 556.082031 281.566406 549.84375 282.085938 Z M 549.84375 282.085938 "/>
</g>
</g>
</g>
</g>
</svg>
